<svg width="28" height="28" fill="none" xmlns="http://www.w3.org/2000/svg" viewBox="0 0 28 28"><path fill-rule="evenodd" clip-rule="evenodd" d="M14 0a1.4 1.4 0 0 1 1.4 1.4v1.4a1.4 1.4 0 0 1-2.8 0V1.4A1.4 1.4 0 0 1 14 0ZM4.1 4.1a1.4 1.4 0 0 1 1.98 0l.99.99a1.4 1.4 0 1 1-1.98 1.98l-.99-.99a1.4 1.4 0 0 1 0-1.98Zm19.8 0a1.4 1.4 0 0 1 0 1.98l-.99.99a1.4 1.4 0 0 1-1.98-1.98l.99-.99a1.4 1.4 0 0 1 1.98 0ZM7 14a7 7 0 1 1 14 0 7 7 0 0 1-14 0Zm-7 0a1.4 1.4 0 0 1 1.4-1.4h1.4a1.4 1.4 0 1 1 0 2.8H1.4A1.4 1.4 0 0 1 0 14Zm23.8 0a1.4 1.4 0 0 1 1.4-1.4h1.4a1.4 1.4 0 1 1 0 2.8h-1.4a1.4 1.4 0 0 1-1.4-1.4Zm-2.87 6.93a1.399 1.399 0 0 1 1.98 0l.99.99a1.401 1.401 0 0 1-1.526 2.283 1.401 1.401 0 0 1-.454-.303l-.99-.99a1.399 1.399 0 0 1 0-1.98Zm-15.84 0a1.4 1.4 0 1 1 1.98 1.98l-.99.99a1.4 1.4 0 0 1-1.98-1.98l.99-.99ZM14 23.8a1.4 1.4 0 0 1 1.4 1.4v1.4a1.4 1.4 0 1 1-2.8 0v-1.4a1.4 1.4 0 0 1 1.4-1.4Z" fill="#676767"/></svg>
